<?xml version="1.0" encoding="UTF-8"?>
<svg width="20px" height="20px" viewBox="0 0 20 20" version="1.1" xmlns="http://www.w3.org/2000/svg" xmlns:xlink="http://www.w3.org/1999/xlink">
    <!-- Generator: Sketch 53.2 (72643) - https://sketchapp.com -->
    <title>Black/Instagram</title>
    <desc>Created with Sketch.</desc>
    <g id="Symbols" stroke="none" stroke-width="1" fill="none" fill-rule="evenodd">
        <g id="Footer" transform="translate(-1340.000000, -290.000000)" fill="#000000">
            <g id="Group">
                <g id="Black/Social/Instagram" transform="translate(1340.000000, 290.000000)">
                    <path d="M10.0000198,-3.55271368e-15 C12.7158369,-3.55271368e-15 13.0563809,0.0115115681 14.1229872,0.0601777148 C15.1873706,0.108724776 15.9143063,0.277786048 16.55038,0.525006897 C17.2079684,0.780524015 17.7656443,1.12245728 18.3216134,1.67838663 C18.8775427,2.23435568 19.219476,2.79203161 19.4750328,3.44962002 C19.722214,4.0856937 19.8912752,4.81262938 19.9398223,5.87701279 C19.9884884,6.94361912 20,7.28416306 20,10.0000198 C20,12.7158369 19.9884884,13.0563809 19.9398223,14.1229872 C19.8912752,15.1873706 19.722214,15.9143063 19.4750328,16.55038 C19.219476,17.2079684 18.8775427,17.7656443 18.3216134,18.3216134 C17.7656443,18.8775427 17.2079684,19.219476 16.55038,19.4750328 C15.9143063,19.722214 15.1873706,19.8912752 14.1229872,19.9398223 C13.0563809,19.9884884 12.7158369,20 10.0000198,20 C7.28416306,20 6.94361912,19.9884884 5.87701279,19.9398223 C4.81262938,19.8912752 4.0856937,19.722214 3.44962002,19.4750328 C2.79203161,19.219476 2.23435568,18.8775427 1.67838663,18.3216134 C1.12245728,17.7656443 0.780524015,17.2079684 0.525006897,16.55038 C0.277786048,15.9143063 0.108724776,15.1873706 0.0601777148,14.1229872 C0.0115115681,13.0563809 0,12.7158369 0,10.0000198 C0,7.28416306 0.0115115681,6.94361912 0.0601777148,5.87701279 C0.108724776,4.81262938 0.277786048,4.0856937 0.525006897,3.44962002 C0.780524015,2.79203161 1.12245728,2.23435568 1.67838663,1.67838663 C2.23435568,1.12245728 2.79203161,0.780524015 3.44962002,0.525006897 C4.0856937,0.277786048 4.81262938,0.108724776 5.87701279,0.0601777148 C6.94361912,0.0115115681 7.28416306,-3.55271368e-15 10.0000198,-3.55271368e-15 Z M10.0000198,1.80179858 C7.32989177,1.80179858 7.01360151,1.81200021 5.95914187,1.86011063 C4.98415175,1.9045691 4.45465931,2.06747764 4.10228624,2.2044256 C3.635512,2.38583204 3.30239103,2.60252738 2.95247906,2.95247906 C2.60252738,3.30239103 2.38583204,3.635512 2.2044256,4.10228624 C2.06747764,4.45465931 1.9045691,4.98415175 1.86011063,5.95914187 C1.81200021,7.01360151 1.80179858,7.32989177 1.80179858,10.0000198 C1.80179858,12.6701082 1.81200021,12.9863985 1.86011063,14.0408581 C1.9045691,15.0158483 2.06747764,15.5453407 2.2044256,15.8977138 C2.38583204,16.364488 2.60256708,16.697609 2.95247906,17.0475209 C3.30239103,17.3974726 3.635512,17.614168 4.10228624,17.7955744 C4.45465931,17.9325224 4.98415175,18.0954309 5.95914187,18.1398894 C7.01348243,18.1879998 7.3296933,18.1982014 10.0000198,18.1982014 C12.6703067,18.1982014 12.9865573,18.1879998 14.0408581,18.1398894 C15.0158483,18.0954309 15.5453407,17.9325224 15.8977138,17.7955744 C16.364488,17.614168 16.697609,17.3974726 17.0475209,17.0475209 C17.3974726,16.697609 17.614168,16.364488 17.7955744,15.8977138 C17.9325224,15.5453407 18.0954309,15.0158483 18.1398894,14.0408581 C18.1879998,12.9863985 18.1982014,12.6701082 18.1982014,10.0000198 C18.1982014,7.32989177 18.1879998,7.01360151 18.1398894,5.95914187 C18.0954309,4.98415175 17.9325224,4.45465931 17.7955744,4.10228624 C17.614168,3.635512 17.3974726,3.30239103 17.0475209,2.95247906 C16.697609,2.60252738 16.364488,2.38583204 15.8977138,2.2044256 C15.5453407,2.06747764 15.0158483,1.9045691 14.0408581,1.86011063 C12.9863985,1.81200021 12.6701082,1.80179858 10.0000198,1.80179858 Z M10.0000198,4.86486808 C12.8360733,4.86486808 15.1351319,7.16392671 15.1351319,10.0000198 C15.1351319,12.8360733 12.8360733,15.1351319 10.0000198,15.1351319 C7.16392671,15.1351319 4.86486808,12.8360733 4.86486808,10.0000198 C4.86486808,7.16392671 7.16392671,4.86486808 10.0000198,4.86486808 Z M10.0000198,13.3333333 C11.8409578,13.3333333 13.3333333,11.8409578 13.3333333,10.0000198 C13.3333333,8.15904224 11.8409578,6.66666667 10.0000198,6.66666667 C8.15904224,6.66666667 6.66666667,8.15904224 6.66666667,10.0000198 C6.66666667,11.8409578 8.15904224,13.3333333 10.0000198,13.3333333 Z M16.5380348,4.66198662 C16.5380348,5.32473538 16.0007621,5.86196836 15.3380134,5.86196836 C14.6753043,5.86196836 14.1380316,5.32473538 14.1380316,4.66198662 C14.1380316,3.99923785 14.6753043,3.46196518 15.3380134,3.46196518 C16.0007621,3.46196518 16.5380348,3.99923785 16.5380348,4.66198662 Z" id="Instagram"></path>
                </g>
            </g>
        </g>
    </g>
</svg>