<?xml version="1.0" encoding="UTF-8"?>
<svg width="116px" height="46px" viewBox="0 0 116 46" version="1.1" xmlns="http://www.w3.org/2000/svg" xmlns:xlink="http://www.w3.org/1999/xlink">
    <!-- Generator: Sketch 53.2 (72643) - https://sketchapp.com -->
    <title>Group 2</title>
    <desc>Created with Sketch.</desc>
    <g id="Symbols" stroke="none" stroke-width="1" fill="none" fill-rule="evenodd">
        <g id="Header" transform="translate(-662.000000, -18.000000)" fill-rule="nonzero">
            <g id="Group" transform="translate(40.000000, 18.000000)">
                <g id="Group-2" transform="translate(622.000000, 0.000000)">
                    <rect id="Rectangle" stroke="#333333" stroke-width="2" x="1" y="1" width="114" height="44"></rect>
                    <path d="M23.3399998,18.265 L25.4849998,25.66 L27.5699998,18.91 L28.7699998,18.91 L30.9749998,25.69 L33.2549998,18.265 L35.2499998,18.265 L31.9049998,28 L30.0449998,28 L28.2149998,22.51 L26.3999998,28 L24.5399998,28 L21.3599998,18.265 L23.3399998,18.265 Z M40.3299999,18.265 L46.5999999,18.265 L46.5999999,19.795 L42.0999999,19.795 L42.0999999,22.36 L46.3149999,22.36 L46.3149999,23.89 L42.0999999,23.89 L42.0999999,26.455 L46.5999999,26.455 L46.5999999,28 L40.3299999,28 L40.3299999,18.265 Z M54.305,26.455 L58.31,26.455 L58.31,28 L52.535,28 L52.535,18.265 L54.305,18.265 L54.305,26.455 Z M65.115,26.455 L69.12,26.455 L69.12,28 L63.345,28 L63.345,18.265 L65.115,18.265 L65.115,26.455 Z M74.1550001,18.265 L78.0850001,18.265 C79.1650055,18.265 79.9999972,18.5199975 80.5900001,19.03 C81.1500029,19.5000024 81.4300001,20.1049963 81.4300001,20.845 C81.4300001,21.3950027 81.2775017,21.8649981 80.9725001,22.255 C80.6674986,22.645002 80.2400029,22.9199992 79.6900001,23.08 C80.2400029,23.1900006 80.6949983,23.4374981 81.0550001,23.8225 C81.4150019,24.2075019 81.5950001,24.699997 81.5950001,25.3 C81.5950001,26.500006 81.0000061,27.3199978 79.8100001,27.76 C79.3599979,27.9200008 78.7900036,28 78.1000001,28 L74.1550001,28 L74.1550001,18.265 Z M78.0550001,26.455 C78.625003,26.455 79.0374989,26.3400011 79.2925001,26.11 C79.5475014,25.8799988 79.6750001,25.5750019 79.6750001,25.195 C79.6750001,24.8149981 79.5425015,24.5075012 79.2775001,24.2725 C79.0124988,24.0374988 78.6050029,23.92 78.0550001,23.92 L75.9250001,23.92 L75.9250001,26.455 L78.0550001,26.455 Z M75.9250001,22.375 L78.0100001,22.375 C78.5400028,22.375 78.9399988,22.2600012 79.2100001,22.03 C79.4800015,21.7999989 79.6150001,21.487502 79.6150001,21.0925 C79.6150001,20.697498 79.4825015,20.3825012 79.2175001,20.1475 C78.9524988,19.9124988 78.5550028,19.795 78.0250001,19.795 L75.9250001,19.795 L75.9250001,22.375 Z M88.2200002,18.265 L90.3650002,22.15 L92.6150002,18.265 L94.7000002,18.265 L91.2350002,23.98 L91.2350002,28 L89.4650002,28 L89.4650002,23.98 L86.1200002,18.265 L88.2200002,18.265 Z" id="WELLBY" fill="#333333"></path>
                </g>
            </g>
        </g>
    </g>
</svg>