<?xml version="1.0" encoding="UTF-8"?>
<svg width="20px" height="18px" viewBox="0 0 20 18" version="1.1" xmlns="http://www.w3.org/2000/svg" xmlns:xlink="http://www.w3.org/1999/xlink">
    <!-- Generator: Sketch 53.2 (72643) - https://sketchapp.com -->
    <title>Black/Twitter</title>
    <desc>Created with Sketch.</desc>
    <g id="Symbols" stroke="none" stroke-width="1" fill="none" fill-rule="evenodd">
        <g id="Footer" transform="translate(-1380.000000, -291.000000)" fill="#000000">
            <g id="Group">
                <g id="Black/Social/Twitter" transform="translate(1380.000000, 290.000000)">
                    <path d="M20,3.63970146 C19.2651288,3.97435897 18.4739097,4.20067413 17.6439514,4.30179367 C18.4915185,3.78175033 19.1418677,2.95714458 19.4482597,1.9748405 C18.6546927,2.4563621 17.7777778,2.80666907 16.8409931,2.9944625 C16.0943828,2.17707957 15.0272935,1.66666667 13.8463344,1.66666667 C11.5818513,1.66666667 9.74467336,3.55061996 9.74467336,5.87396172 C9.74467336,6.20380402 9.77989083,6.52401589 9.85032576,6.83218972 C6.44010096,6.65643433 3.4172683,4.98314674 1.3922639,2.43469363 C1.0389153,3.05826411 0.83700182,3.78175033 0.83700182,4.5521849 C0.83700182,6.01119538 1.56130774,7.29926568 2.66244057,8.0540508 C1.99096085,8.03358613 1.35704643,7.84218129 0.802958267,7.52919225 L0.802958267,7.58095582 C0.802958267,9.62019983 2.21752656,11.3211749 4.09579151,11.7063922 C3.75183424,11.8051041 3.38909432,11.8544601 3.01461525,11.8544601 C2.75048424,11.8544601 2.49222281,11.8291802 2.24217879,11.7798242 C2.76457123,13.4507042 4.27892235,14.6677501 6.07501321,14.7002528 C4.67101015,15.829421 2.90074544,16.5023474 0.979045607,16.5023474 C0.648001409,16.5023474 0.320478958,16.4830866 0,16.4445648 C1.81604743,17.6363308 3.97370429,18.3333333 6.28983976,18.3333333 C13.838117,18.3333333 17.9644304,11.9230769 17.9644304,6.36270615 C17.9644304,6.17972794 17.9609086,5.99674973 17.9538651,5.81738293 C18.7556495,5.22390755 19.4517814,4.48356808 20,3.63970146" id="Twitter"></path>
                </g>
            </g>
        </g>
    </g>
</svg>